<?xml version="1.0" encoding="UTF-8"?>
<svg version="1.1" xmlns="http://www.w3.org/2000/svg" width="500" height="500">
<path d="M0 0 C0.33 0.33 0.66 0.66 1 1 C3.22502102 1.41850869 5.45532968 1.80897163 7.6875 2.1875 C21.40850445 4.77540648 32.29219249 10.81987802 43.00390625 19.65234375 C45.26317612 21.17768251 47.17129081 21.73445478 49.8125 22.375 C53.36469611 23.32978104 55.44005757 24.19805333 58.0625 26.75 C62.85604434 30.66667647 69.78229332 28.95391274 75.52734375 28.39453125 C76.67332031 28.26433594 77.81929687 28.13414062 79 28 C78.47470631 32.1088041 77.33192009 34.25519841 74.5625 37.3125 C73.94503906 38.00988281 73.32757813 38.70726562 72.69140625 39.42578125 C71 41 71 41 69 41 C69.33 41.66 69.66 42.32 70 43 C70.0972886 45.12318064 70.12977619 47.24959691 70.125 49.375 C70.12757813 50.51710937 70.13015625 51.65921875 70.1328125 52.8359375 C70 56 70 56 69.41796875 58.2578125 C68.76426898 60.17883276 68.76426898 60.17883276 70.1875 62.5 C71.95012332 64.93120457 73.80524341 66.95660593 76 69 C75.67 69.99 75.34 70.98 75 72 C71.96826719 73.19493974 68.97540573 73.10493955 65.75 73.0625 C64.41195312 73.04896484 64.41195312 73.04896484 63.046875 73.03515625 C62.37140625 73.02355469 61.6959375 73.01195312 61 73 C61.226875 73.721875 61.45375 74.44375 61.6875 75.1875 C62.08976259 78.80786329 61.07403501 80.08098776 59 83 C58.34 83.99 57.68 84.98 57 86 C57.45375 86.350625 57.9075 86.70125 58.375 87.0625 C60.64661334 89.77096206 61.16798854 92.60795328 62 96 C62.7425 94.2365625 62.7425 94.2365625 63.5 92.4375 C66.3955677 86.6360601 70.92882908 82.76592328 76.5 79.5625 C80.13491363 78.74464443 83.26976143 78.75539419 87 79 C89 81 89 81 89.4375 84.375 C89 88 89 88 86.9375 90.25 C84 92 84 92 80.3125 93.5 C76.99899074 94.6892426 76.99899074 94.6892426 75.5 96.9375 C74.89067043 99.45098447 74.98643455 100.61929976 76 103 C78.2492114 104.07128705 78.2492114 104.07128705 80.9375 104.625 C85.81904762 105.81904762 85.81904762 105.81904762 88 108 C88.55263158 114.07894737 88.55263158 114.07894737 86.875 116.875 C83.08158417 119.1510495 79.85757554 119.14033054 75.5625 118.4375 C70.3696252 116.34212947 66.3034197 113.8233084 63.89453125 108.60546875 C63.16003209 106.41576468 62.52463107 104.24841889 62 102 C61.85304688 103.33804688 61.85304688 103.33804688 61.703125 104.703125 C61.55359375 105.87359375 61.4040625 107.0440625 61.25 108.25 C61.11078125 109.41015625 60.9715625 110.5703125 60.828125 111.765625 C59.91129517 115.34645095 58.81664498 116.68714518 56 119 C51.39030866 117.544308 51.39030866 117.544308 49.8515625 115.3984375 C48.66863726 112.06671229 48.70434779 108.86494865 48.75 105.375 C48.75386719 104.66585449 48.75773438 103.95670898 48.76171875 103.22607422 C48.84260141 98.28436844 49.38765027 93.63393293 50.5625 88.8203125 C51.0778962 86.98792109 51.0778962 86.98792109 51 85 C50.34 84.01 49.68 83.02 49 82 C49.375 78.3125 49.375 78.3125 50 75 C46.535 75.495 46.535 75.495 43 76 C43.639375 76.78375 44.27875 77.5675 44.9375 78.375 C48.15899782 82.47508813 48.42961131 84.75874197 48 90 C47.03515625 91.8046875 47.03515625 91.8046875 45.875 93.5625 C43.61767287 96.82636316 43.61767287 96.82636316 44.625 100.125 C45.47327392 101.89866365 46.32641921 103.67001838 47.1875 105.4375 C48.30298085 108.95555498 47.85661484 111.44175373 47 115 C45.10466125 117.58455285 44.11173483 117.96275506 41 119 C36.17324162 116.34528289 34.98670386 113.03312556 33.48046875 108.0234375 C33 106 33 106 33 104 C31.02218648 104.11430194 31.02218648 104.11430194 29 105 C27.96573573 107.25213376 27.96573573 107.25213376 27.4375 109.9375 C26.31310267 114.79126489 26.31310267 114.79126489 23 117 C20.0825723 117.36467846 18.63434213 117.47575659 16.25 115.6875 C13.84616904 112.44232821 13.91656914 109.64748763 14.0859375 105.7734375 C14.15167969 104.22462891 14.15167969 104.22462891 14.21875 102.64453125 C14.2703125 101.56558594 14.321875 100.48664063 14.375 99.375 C14.44074219 97.79138672 14.44074219 97.79138672 14.5078125 96.17578125 C15.26976469 79.09535296 15.26976469 79.09535296 18 75 C21.94874986 72.36750009 25.33433828 72.11181324 30 72 C29.67 71.67 29.34 71.34 29 71 C28.68546875 70.41347656 28.3709375 69.82695312 28.046875 69.22265625 C25.93689426 65.70814014 24.24036623 63.44826008 20.30859375 62.02734375 C16.85440109 61.44371921 13.49995967 61.16423168 10 61 C9.34531738 60.96438965 8.69063477 60.9287793 8.01611328 60.89208984 C-11.20107554 59.95992991 -31.58073319 63.54328537 -48 74 C-45.80167287 75.73666727 -45.80167287 75.73666727 -43 77 C-40.39068734 76.10636395 -40.39068734 76.10636395 -38 75 C-36.515 75.99 -36.515 75.99 -35 77 C-34.5 79.8125 -34.5 79.8125 -35 83 C-37.92066088 86.50479305 -41.3948393 89.21887603 -45 92 C-49.18788859 87.06930548 -51.72694671 83.55327899 -52 77 C-52.99 77.66 -53.98 78.32 -55 79 C-56.29488639 85.83644321 -54.34439015 93.02787473 -51 99 C-46.96752448 98.76279556 -44.63578632 98.53912288 -41.5078125 95.88671875 C-38.37740848 92.28334091 -36.28343642 88.38579643 -34.12695312 84.171875 C-31.71513371 79.68930155 -29.15601157 76.9765277 -25 74 C-22.25 73.5625 -22.25 73.5625 -20 74 C-17.47583796 76.52416204 -17.67474648 77.49784796 -17.625 81 C-17.75940446 87.08773141 -19.31861502 91.58963149 -22 97 C-22.49757813 98.04414063 -22.99515625 99.08828125 -23.5078125 100.1640625 C-28.08334053 109.25127399 -34.00815703 119.32752091 -43.83203125 123.4453125 C-49.59076642 124.91871862 -55.58261857 125.12783466 -60.9375 122.3125 C-67.17571258 117.60201295 -70.09694194 111.98378501 -71.68505859 104.40039062 C-72.51986561 98.03773749 -72.16693964 91.51250202 -71.94042969 85.11450195 C-71.69736277 77.08997502 -71.69736277 77.08997502 -75 70 C-76.32 70 -77.64 70 -79 70 C-79.27714844 70.55429688 -79.55429688 71.10859375 -79.83984375 71.6796875 C-81.2265625 74.453125 -82.61328125 77.2265625 -84 80 C-83.94457031 81.03125 -83.88914063 82.0625 -83.83203125 83.125 C-84.03839152 87.88568353 -85.4791318 90.86079641 -87.6875 95 C-88.02716797 95.67289062 -88.36683594 96.34578125 -88.71679688 97.0390625 C-94.80980228 108.83785427 -94.80980228 108.83785427 -100.0625 111.625 C-103 112 -103 112 -105.375 110.75 C-107 109 -107 109 -107 107 C-107.7425 107.639375 -108.485 108.27875 -109.25 108.9375 C-113.33333333 112 -113.33333333 112 -116 112 C-120.59103843 109.04915311 -122.57871004 105.50547973 -124.6875 100.625 C-124.98205078 99.97789062 -125.27660156 99.33078125 -125.58007812 98.6640625 C-128.79205073 91.50388986 -131.6164196 84.84925881 -129 77 C-127.25 76 -127.25 76 -125 76 C-118.87239325 80.08507117 -117.29855647 87.31951459 -115 94 C-115.33 92.80375 -115.66 91.6075 -116 90.375 C-116.87890772 86.82797958 -117.34161799 83.67239338 -117 80 C-116.34 79.01 -115.68 78.02 -115 77 C-114.071875 77.165 -113.14375 77.33 -112.1875 77.5 C-107.85194271 78.18008742 -104.29391529 77.76336272 -100 77 C-98.68 78.65 -97.36 80.3 -96 82 C-93.65712582 79.32752366 -93.65712582 79.32752366 -93 76 C-94.64873805 74.29317519 -94.64873805 74.29317519 -96.75 72.5625 C-97.79414063 71.66724609 -97.79414063 71.66724609 -98.859375 70.75390625 C-99.56578125 70.17511719 -100.2721875 69.59632813 -101 69 C-101.66902344 68.44570312 -102.33804688 67.89140625 -103.02734375 67.3203125 C-107.04060498 64.63420894 -112.20102079 64.98711324 -116.875 65.0625 C-120 65 -120 65 -122 63 C-122.4375 60.1875 -122.4375 60.1875 -122 57 C-119.70589307 53.963682 -117.90433036 52.36603848 -114.375 50.9375 C-109.18588289 51.03359476 -104.75304991 53.02942948 -100 55 C-97.76779337 50.64844875 -97.76779337 50.64844875 -97 45.9375 C-100.17684757 39.78235784 -103.64236909 37.24386973 -110 35 C-110.25 29.375 -110.25 29.375 -108 26 C-104.51399852 25.54530415 -102.71133096 25.49190645 -99.8125 27.5625 C-99.214375 28.036875 -98.61625 28.51125 -98 29 C-97.01 28.67 -96.02 28.34 -95 28 C-94.505 29.485 -94.505 29.485 -94 31 C-93.9175 30.071875 -93.835 29.14375 -93.75 28.1875 C-92.79105055 21.64799752 -90.72616698 15.30155597 -86.75 10 C-83.28018291 7.47649666 -80.07942987 6.31371471 -76 5 C-76 5.66 -76 6.32 -76 7 C-74.63875 7.37125 -74.63875 7.37125 -73.25 7.75 C-69.87503877 9.04806201 -68.25897879 10.21971841 -66 13 C-66 13.66 -66 14.32 -66 15 C-64.65808594 14.31164062 -64.65808594 14.31164062 -63.2890625 13.609375 C-42.87759462 3.20797681 -23.03636995 -1.02250206 0 0 Z M42 39 C43 41 43 41 43 41 Z M52 40 C52 41.98 52 43.96 52 46 C52.33 46 52.66 46 53 46 C53 44.02 53 42.04 53 40 C52.67 40 52.34 40 52 40 Z M41 41 C42 44 42 44 42 44 Z M42 44 C43 46 43 46 43 46 Z M48 47 C47.34 47.66 46.68 48.32 46 49 C47.65 48.67 49.3 48.34 51 48 C50.01 47.67 49.02 47.34 48 47 Z M39 52 C39.66 52.66 40.32 53.32 41 54 C41 53.34 41 52.68 41 52 C40.34 52 39.68 52 39 52 Z M44 58 C48 59 48 59 48 59 Z M41 60 C39.70366379 61.06645115 39.70366379 61.06645115 39.9375 63.5625 C39.958125 64.366875 39.97875 65.17125 40 66 C41.10836423 64.11683841 41.10836423 64.11683841 42 62 C41.67 61.34 41.34 60.68 41 60 Z M50 60 C51 62 51 62 51 62 Z M51 62 C52 65 52 65 52 65 Z M50 65 C51 67 51 67 51 67 Z M27 86 C27 88.64 27 91.28 27 94 C30.37462715 93.45276317 32.08235 92.9451 35 91 C35 89.68 35 88.36 35 87 C32.29120665 85.64560332 29.99066732 85.93498549 27 86 Z " fill="#fff" transform="translate(296,170)"/>
<path d="M0 0 C0.64324219 0.03867188 1.28648437 0.07734375 1.94921875 0.1171875 C7.53866571 0.47917073 10.07521539 1.98176814 14 6 C16.55167513 9.47955699 16.42883984 12.7830749 16 17 C15.03125 18.796875 15.03125 18.796875 13.875 20.5625 C11.61767287 23.82636316 11.61767287 23.82636316 12.625 27.125 C13.47327392 28.89866365 14.32641921 30.67001838 15.1875 32.4375 C16.30298085 35.95555498 15.85661484 38.44175373 15 42 C13.10466125 44.58455285 12.11173483 44.96275506 9 46 C4.17324162 43.34528289 2.98670386 40.03312556 1.48046875 35.0234375 C1 33 1 33 1 31 C-0.97781352 31.11430194 -0.97781352 31.11430194 -3 32 C-4.03426427 34.25213376 -4.03426427 34.25213376 -4.5625 36.9375 C-5.68689733 41.79126489 -5.68689733 41.79126489 -9 44 C-11.9174277 44.36467846 -13.36565787 44.47575659 -15.75 42.6875 C-18.15383096 39.44232821 -18.08343086 36.64748763 -17.9140625 32.7734375 C-17.87023437 31.74089844 -17.82640625 30.70835937 -17.78125 29.64453125 C-17.7296875 28.56558594 -17.678125 27.48664063 -17.625 26.375 C-17.58117187 25.31925781 -17.53734375 24.26351563 -17.4921875 23.17578125 C-16.7244627 5.96595026 -16.7244627 5.96595026 -13.75 2 C-8.93817228 -1.49951107 -5.66685257 -1.11114756 0 0 Z M-5 13 C-5 15.64 -5 18.28 -5 21 C-1.62537285 20.45276317 0.08235 19.9451 3 18 C3 16.68 3 15.36 3 14 C0.29120665 12.64560332 -2.00933268 12.93498549 -5 13 Z " fill="#E2C3A7" transform="translate(328,243)"/>
<path d="M0 0 C5.76161838 3.42953475 7.46756589 11.52168449 9.625 17.5625 C9.295 16.36625 8.965 15.17 8.625 13.9375 C7.74609228 10.39047958 7.28338201 7.23489338 7.625 3.5625 C8.285 2.5725 8.945 1.5825 9.625 0.5625 C10.553125 0.7275 11.48125 0.8925 12.4375 1.0625 C16.77305729 1.74258742 20.33108471 1.32586272 24.625 0.5625 C25.945 2.2125 27.265 3.8625 28.625 5.5625 C29.1509375 4.5725 29.1509375 4.5725 29.6875 3.5625 C31.625 1.5625 31.625 1.5625 35.1875 1.1875 C38.625 1.5625 38.625 1.5625 40.625 3.5625 C41.30983175 9.58299891 39.68660784 13.40977363 36.9375 18.5625 C36.59783203 19.23539062 36.25816406 19.90828125 35.90820312 20.6015625 C29.81519772 32.40035427 29.81519772 32.40035427 24.5625 35.1875 C21.625 35.5625 21.625 35.5625 19.25 34.3125 C17.625 32.5625 17.625 32.5625 17.625 30.5625 C16.8825 31.201875 16.14 31.84125 15.375 32.5 C11.29166667 35.5625 11.29166667 35.5625 8.625 35.5625 C4.03396157 32.61165311 2.04628996 29.06797973 -0.0625 24.1875 C-0.35705078 23.54039062 -0.65160156 22.89328125 -0.95507812 22.2265625 C-4.16705073 15.06638986 -6.9914196 8.41175881 -4.375 0.5625 C-2.375 -0.4375 -2.375 -0.4375 0 0 Z " fill="#E2C3A7" transform="translate(171.375,246.4375)"/>
<path d="M0 0 C2.64 0 5.28 0 8 0 C9.01683263 3.23537655 9.23436771 4.53126457 7.6875 7.625 C6.8521875 8.800625 6.8521875 8.800625 6 10 C5.01 11.485 5.01 11.485 4 13 C4.45375 13.350625 4.9075 13.70125 5.375 14.0625 C7.64661334 16.77096206 8.16798854 19.60795328 9 23 C9.495 21.824375 9.99 20.64875 10.5 19.4375 C13.3955677 13.6360601 17.92882908 9.76592328 23.5 6.5625 C27.13491363 5.74464443 30.26976143 5.75539419 34 6 C36 8 36 8 36.4375 11.375 C36 15 36 15 33.9375 17.25 C31 19 31 19 27.3125 20.5 C23.99899074 21.6892426 23.99899074 21.6892426 22.5 23.9375 C21.89067043 26.45098447 21.98643455 27.61929976 23 30 C25.2492114 31.07128705 25.2492114 31.07128705 27.9375 31.625 C32.81904762 32.81904762 32.81904762 32.81904762 35 35 C35.55263158 41.07894737 35.55263158 41.07894737 33.875 43.875 C30.08158417 46.1510495 26.85757554 46.14033054 22.5625 45.4375 C17.3696252 43.34212947 13.3034197 40.8233084 10.89453125 35.60546875 C10.16003209 33.41576468 9.52463107 31.24841889 9 29 C8.85304688 30.33804687 8.85304688 30.33804687 8.703125 31.703125 C8.55359375 32.87359375 8.4040625 34.0440625 8.25 35.25 C8.11078125 36.41015625 7.9715625 37.5703125 7.828125 38.765625 C6.91129517 42.34645095 5.81664498 43.68714518 3 46 C-1.60969134 44.544308 -1.60969134 44.544308 -3.1484375 42.3984375 C-4.33136274 39.06671229 -4.29565221 35.86494865 -4.25 32.375 C-4.24613281 31.66585449 -4.24226563 30.95670898 -4.23828125 30.22607422 C-4.15739859 25.28436844 -3.61234973 20.63393293 -2.4375 15.8203125 C-1.9221038 13.98792109 -1.9221038 13.98792109 -2 12 C-2.66 11.01 -3.32 10.02 -4 9 C-3.625 5.3125 -3.625 5.3125 -3 2 C-2.01 2 -1.02 2 0 2 C0 1.34 0 0.68 0 0 Z " fill="#E2C3A7" transform="translate(349,243)"/>
<path d="M0 0 C6.01799904 6.79451505 5.21081656 16.78701878 5.3125 25.375 C5.33014404 26.24318359 5.34778809 27.11136719 5.3659668 28.00585938 C5.36087752 32.7768207 5.23149347 36.200914 2 40 C-1 41 -1 41 -3.109375 40.07421875 C-5.88171516 37.03266374 -5.91977057 33.75117394 -6.25 29.8125 C-6.32734375 29.06291016 -6.4046875 28.31332031 -6.484375 27.54101562 C-6.67244395 25.69558903 -6.83838576 23.8479313 -7 22 C-7.93585938 22.82242187 -8.87171875 23.64484375 -9.8359375 24.4921875 C-12.671875 26.984375 -12.671875 26.984375 -15.625 27.125 C-18.68954872 25.67337166 -20.09022304 23.75856672 -22 21 C-23.25661156 23.51322312 -23.21567716 25.50917677 -23.375 28.3125 C-23.7635444 33.09410284 -24.50531777 36.50531777 -28 40 C-29.66617115 40.04063832 -31.33388095 40.042721 -33 40 C-36.94838562 33.26220762 -35.88007128 27.40465899 -34.875 19.875 C-34.67777344 18.12509766 -34.67777344 18.12509766 -34.4765625 16.33984375 C-33.27103956 6.59519997 -33.27103956 6.59519997 -30 2 C-27.625 0.5 -27.625 0.5 -25 0 C-20.85290647 1.76251475 -18.06621946 4.758568 -15 8 C-14.278125 7.071875 -13.55625 6.14375 -12.8125 5.1875 C-9.16106596 0.84692207 -5.8116407 -2.2940687 0 0 Z " fill="#E2C3A7" transform="translate(100,241)"/>
<path d="M0 0 C1.31613281 -0.01417969 2.63226563 -0.02835938 3.98828125 -0.04296875 C7.43813453 0.17196403 9.69215266 0.49839436 12.6875 2.1875 C13.625 5.125 13.625 5.125 13.6875 8.1875 C12.6975 9.6725 12.6975 9.6725 11.6875 11.1875 C9.3046875 11.48046875 9.3046875 11.48046875 6.5625 11.375 C5.65242188 11.34792969 4.74234375 11.32085937 3.8046875 11.29296875 C3.10601562 11.25816406 2.40734375 11.22335938 1.6875 11.1875 C1.6875 12.1775 1.6875 13.1675 1.6875 14.1875 C2.31398438 14.22488281 2.94046875 14.26226562 3.5859375 14.30078125 C4.40320313 14.36652344 5.22046875 14.43226563 6.0625 14.5 C7.28066406 14.58701172 7.28066406 14.58701172 8.5234375 14.67578125 C10.6875 15.1875 10.6875 15.1875 12.6875 18.1875 C13.00912076 21.2750593 13.17474515 23.32765561 11.625 26.0625 C8.68522876 27.76946395 6.00879197 27.37549766 2.6875 27.1875 C2.3575 27.8475 2.0275 28.5075 1.6875 29.1875 C4.72987265 30.70868633 7.91230332 30.52261418 11.27734375 30.7109375 C14.09330276 31.26773977 15.07060393 31.82930275 16.6875 34.1875 C16.8671875 36.16015625 16.8671875 36.16015625 16.5625 38.25 C16.47742188 38.94222656 16.39234375 39.63445312 16.3046875 40.34765625 C15.6875 42.1875 15.6875 42.1875 12.6875 44.1875 C8.84742685 44.62329969 4.98712547 44.51171051 1.125 44.5 C-0.47504883 44.52416992 -0.47504883 44.52416992 -2.10742188 44.54882812 C-3.12513672 44.54947266 -4.14285156 44.55011719 -5.19140625 44.55078125 C-6.1254126 44.55376221 -7.05941895 44.55674316 -8.02172852 44.55981445 C-8.77768311 44.43695068 -9.5336377 44.31408691 -10.3125 44.1875 C-12.83267479 40.40723781 -12.50823847 37.52129499 -12.359375 33.16015625 C-12.33909241 32.37483017 -12.31880981 31.58950409 -12.2979126 30.78038025 C-12.25235973 29.12012243 -12.20159026 27.46000074 -12.14599609 25.80004883 C-12.06293759 23.26336449 -12.00099231 20.72678507 -11.94140625 18.18945312 C-11.89449767 16.57548347 -11.84636119 14.96154893 -11.796875 13.34765625 C-11.77904968 12.5902565 -11.76122437 11.83285675 -11.74285889 11.05250549 C-11.49195723 4.27830476 -11.49195723 4.27830476 -9.3125 1.1875 C-6.32512272 -0.30618864 -3.27289093 0.00312001 0 0 Z " fill="#E2C3A7" transform="translate(118.3125,236.8125)"/>
<path d="M0 0 C1.2375 0.07863281 2.475 0.15726563 3.75 0.23828125 C7 0.6875 7 0.6875 10 2.6875 C10.375 6.1875 10.375 6.1875 10 9.6875 C6.3558226 12.1169516 4.28758728 11.84929575 0 11.6875 C-0.33 12.6775 -0.66 13.6675 -1 14.6875 C0.258125 14.625625 1.51625 14.56375 2.8125 14.5 C5.39469981 14.51831347 6.74451965 14.55588891 9.0625 15.75 C10.56668055 18.85863981 9.72765436 21.41305538 9 24.6875 C6.95301586 26.73448414 2.69588759 26.38795693 0 26.6875 C0 27.3475 0 28.0075 0 28.6875 C0.85464844 28.82027344 1.70929688 28.95304687 2.58984375 29.08984375 C4.24693359 29.35474609 4.24693359 29.35474609 5.9375 29.625 C7.03964844 29.79902344 8.14179688 29.97304688 9.27734375 30.15234375 C12 30.6875 12 30.6875 13 31.6875 C13.47704095 39.08163472 13.47704095 39.08163472 11.7487793 41.27661133 C9.60635913 43.0050835 8.41793393 43.12897059 5.69140625 43.26953125 C4.44713867 43.33624023 4.44713867 43.33624023 3.17773438 43.40429688 C2.31470703 43.43587891 1.45167969 43.46746094 0.5625 43.5 C-0.72624023 43.57637695 -0.72624023 43.57637695 -2.04101562 43.65429688 C-9.33322319 43.98807519 -9.33322319 43.98807519 -13 41.6875 C-15.37374679 36.94000641 -14.10974823 29.97139785 -14 24.6875 C-13.98211426 23.7917627 -13.96422852 22.89602539 -13.94580078 21.97314453 C-13.87886136 19.12699778 -13.78696991 16.28268235 -13.6875 13.4375 C-13.66510254 12.52057373 -13.64270508 11.60364746 -13.61962891 10.65893555 C-13.58401855 9.79695557 -13.5484082 8.93497559 -13.51171875 8.046875 C-13.48553467 7.27827148 -13.45935059 6.50966797 -13.43237305 5.71777344 C-12.88866516 3.16471032 -12.04080354 2.2777678 -10 0.6875 C-6.39750276 -0.51333241 -3.78279324 -0.26400744 0 0 Z " fill="#E2C3A7" transform="translate(296,245.3125)"/>
<path d="M0 0 C3 2 3 2 3.875 3.9375 C4 6 4 6 3 7.5 C1.15652189 8.88260858 -0.57400016 9.78700008 -2.625 10.8125 C-5.35822737 12.35762211 -5.93948543 12.88160192 -7.4375 15.8125 C-6.90925526 19.66114022 -6.06684852 20.17124861 -3.1875 22.625 C-2.09501953 23.44871094 -2.09501953 23.44871094 -0.98046875 24.2890625 C2.44874829 27.25158136 2.95537483 29.43772281 3.3125 33.9375 C3.17763342 37.75635374 2.6543355 40.09682055 0 43 C-6.28645749 46.60889226 -11.11391738 45.97336389 -18.14453125 44.8359375 C-21.03147383 43.99078605 -22.29514964 43.45110159 -24 41 C-23.57894737 36.57894737 -23.57894737 36.57894737 -22 35 C-20.14712498 34.92773498 -18.29166122 34.9161878 -16.4375 34.9375 C-15.42558594 34.94652344 -14.41367187 34.95554687 -13.37109375 34.96484375 C-12.19740234 34.98224609 -12.19740234 34.98224609 -11 35 C-11 34.01 -11 33.02 -11 32 C-12.67489583 30.7069055 -12.67489583 30.7069055 -14.8125 29.625 C-18.39413263 27.47602042 -20.55139915 26.0741899 -22 22 C-22.9572591 15.71254821 -22.30490524 10.89175472 -18.5390625 5.6953125 C-13.39487828 0.02887607 -7.48869376 -1.12592249 0 0 Z " fill="#E2C3A7" transform="translate(440,243)"/>
<path d="M0 0 C3.37143673 1.59629912 5.40057675 3.84662699 7.1328125 7.1796875 C8.24112822 10.78420979 8.32983492 14.20355849 8.3125 17.9375 C8.32861328 18.62779297 8.34472656 19.31808594 8.36132812 20.02929688 C8.36583092 24.77974172 7.49595272 27.97351023 5 32 C1.19735934 35.80264066 -1.55158586 37.88880787 -7 38 C-11.87042218 37.07629924 -15.11532465 36.12096479 -18 32 C-21.35944728 24.22403797 -22.61192377 15.66609513 -19.8125 7.5625 C-14.56883951 0.14904896 -8.64175808 -1.08479051 0 0 Z M-8.1875 13.4375 C-10.8261841 17.16805338 -10.708551 20.56137594 -10 25 C-8.68236671 27.5189267 -8.68236671 27.5189267 -7 29 C-5.04105639 28.88693303 -5.04105639 28.88693303 -3 28 C-0.46460986 23.81660627 -0.69435174 19.73754803 -1 15 C-1.66 14.01 -2.32 13.02 -3 12 C-6.01840542 11.72541106 -6.01840542 11.72541106 -8.1875 13.4375 Z " fill="#E2C3A7" transform="translate(157,244)"/>
<path d="M0 0 C2.4375 1 2.4375 1 3.8125 3.125 C4.58338117 6.6710534 4.13116007 9.46233363 3.4375 13 C4.0975 13 4.7575 13 5.4375 13 C5.4375 12.34 5.4375 11.68 5.4375 11 C7.44921875 9.30859375 7.44921875 9.30859375 10.125 7.4375 C10.99511719 6.81746094 11.86523438 6.19742188 12.76171875 5.55859375 C15.44295661 3.99682162 17.3492102 3.21570678 20.4375 3 C22.4375 5 22.4375 5 23 7.25 C22.22566331 11.03564605 20.23744479 12.26209733 17.26171875 14.5703125 C15.51126596 15.94218771 13.97729245 17.39861586 12.4375 19 C12.84742188 19.49628906 13.25734375 19.99257813 13.6796875 20.50390625 C17.15683723 24.88777684 19.69634622 28.38840708 20.4375 34 C19.19255245 37.3686816 18.30853827 38.58740292 15.0625 40.125 C12.4375 40 12.4375 40 9.8125 37.875 C7.71439587 35.33518973 6.00600872 32.88935817 4.4375 30 C4.045625 31.134375 3.65375 32.26875 3.25 33.4375 C1.4375 37 1.4375 37 -1.25 37.9375 C-2.013125 37.958125 -2.77625 37.97875 -3.5625 38 C-7.65221704 33.05825858 -6.83735494 28.04680869 -6.5625 22 C-6.51864883 20.3880446 -6.47575184 18.77606307 -6.43359375 17.1640625 C-6.37420077 15.44264511 -6.3129938 13.72128938 -6.25 12 C-6.22776367 11.16259277 -6.20552734 10.32518555 -6.18261719 9.46240234 C-6.1468457 8.67043457 -6.11107422 7.8784668 -6.07421875 7.0625 C-6.03494263 5.99708984 -6.03494263 5.99708984 -5.99487305 4.91015625 C-5.20061672 1.40125648 -3.54885108 0 0 0 Z " fill="#E2C3A7" transform="translate(392.5625,249)"/>
<path d="M0 0 C0.33 0 0.66 0 1 0 C1.05402274 2.10388569 1.09280256 4.20816714 1.125 6.3125 C1.14820313 7.48425781 1.17140625 8.65601563 1.1953125 9.86328125 C1 13 1 13 -1 16 C-1.66 16 -2.32 16 -3 16 C-3.33 16.99 -3.66 17.98 -4 19 C-4.99 19 -5.98 19 -7 19 C-7 19.66 -7 20.32 -7 21 C-11.29 20.67 -15.58 20.34 -20 20 C-23 13.88 -23 13.88 -23 10.25 C-21.65915786 7.23310519 -19.91103036 6.41819428 -17 5 C-15 10.625 -15 10.625 -15 14 C-11.7 14.66 -8.4 15.32 -5 16 C-5.2475 14.453125 -5.2475 14.453125 -5.5 12.875 C-5.93321848 9.51755674 -6.08235703 6.37663843 -6 3 C-3.50907189 1.75453595 -2.58919267 2.2232422 0 3 C0 2.01 0 1.02 0 0 Z " fill="#E2C3A7" transform="translate(162,259)"/>
<path d="M0 0 C1.4540625 0.0309375 1.4540625 0.0309375 2.9375 0.0625 C5.87596177 5.69516854 6.18569842 9.30030281 5.125 15.5 C5.01607422 16.23154297 4.90714844 16.96308594 4.79492188 17.71679688 C4.52664499 19.50142139 4.23453351 21.28243589 3.9375 23.0625 C3.2775 23.0625 2.6175 23.0625 1.9375 23.0625 C1.9375 24.0525 1.9375 25.0425 1.9375 26.0625 C0.6175 26.0625 -0.7025 26.0625 -2.0625 26.0625 C-2.0625 25.4025 -2.0625 24.7425 -2.0625 24.0625 C-2.7225 24.0625 -3.3825 24.0625 -4.0625 24.0625 C-4.84940105 16.33876354 -5.5401418 8.74623736 -4.0625 1.0625 C-3.0625 0.0625 -3.0625 0.0625 0 0 Z " fill="#E2C3A7" transform="translate(351.0625,260.9375)"/>
<path d="M0 0 C2.4375 0.375 2.4375 0.375 5 1 C7.87199032 1.1491375 7.87199032 1.1491375 10 0.375 C12 0 12 0 15 2 C15.5 4.8125 15.5 4.8125 15 8 C12.07933912 11.50479305 8.6051607 14.21887603 5 17 C0.87798547 12.14686363 -2 8.51927894 -2 2 C-1.34 1.34 -0.68 0.68 0 0 Z " fill="#E2C3A7" transform="translate(246,245)"/>













<path d="" fill="#E2C3A7" transform="translate(0,0)"/>
<path d="" fill="#E2C3A7" transform="translate(0,0)"/>
<path d="" fill="#E2C3A7" transform="translate(0,0)"/>
</svg>